STARTFONT 2.1
FONT -Misc-Fixed-Medium-R-Normal--9-90-75-75-C-60-ISO10646-1
SIZE 9 75 75
FONTBOUNDINGBOX 6 9 0 -2
COMMENT "Generated by fontforge, http://fontforge.sourceforge.net"
STARTPROPERTIES 24
FONTNAME_REGISTRY ""
FOUNDRY "Misc"
FAMILY_NAME "Fixed"
WEIGHT_NAME "Medium"
SLANT "R"
SETWIDTH_NAME "Normal"
ADD_STYLE_NAME ""
PIXEL_SIZE 9
POINT_SIZE 90
RESOLUTION_X 75
RESOLUTION_Y 75
SPACING "C"
AVERAGE_WIDTH 60
CHARSET_REGISTRY "ISO10646"
CHARSET_ENCODING "1"
COPYRIGHT "Public domain font.  Share and enjoy."
_XMBDFED_INFO "Edited with xmbdfed 4.5."
CAP_HEIGHT 6
X_HEIGHT 4
WEIGHT 10
QUAD_WIDTH 6
DEFAULT_CHAR 0
FONT_DESCENT 2
FONT_ASCENT 7
ENDPROPERTIES
CHARS 95
STARTCHAR space
ENCODING 32
SWIDTH 640 0
DWIDTH 6 0
BBX 1 1 5 -2
BITMAP
00
ENDCHAR
STARTCHAR exclam
ENCODING 33
SWIDTH 640 0
DWIDTH 6 0
BBX 1 6 2 0
BITMAP
80
80
80
80
00
80
ENDCHAR
STARTCHAR quotedbl
ENCODING 34
SWIDTH 640 0
DWIDTH 6 0
BBX 3 3 1 3
BITMAP
A0
A0
A0
ENDCHAR
STARTCHAR numbersign
ENCODING 35
SWIDTH 640 0
DWIDTH 6 0
BBX 5 7 0 -1
BITMAP
50
50
F8
50
F8
50
50
ENDCHAR
STARTCHAR dollar
ENCODING 36
SWIDTH 640 0
DWIDTH 6 0
BBX 5 9 0 -2
BITMAP
20
70
A8
A0
70
28
A8
70
20
ENDCHAR
STARTCHAR percent
ENCODING 37
SWIDTH 640 0
DWIDTH 6 0
BBX 6 8 0 -1
BITMAP
40
A8
48
10
20
48
54
08
ENDCHAR
STARTCHAR ampersand
ENCODING 38
SWIDTH 640 0
DWIDTH 6 0
BBX 5 7 0 -1
BITMAP
60
90
90
60
98
90
68
ENDCHAR
STARTCHAR quotesingle
ENCODING 39
SWIDTH 640 0
DWIDTH 6 0
BBX 1 3 2 3
BITMAP
80
80
80
ENDCHAR
STARTCHAR parenleft
ENCODING 40
SWIDTH 640 0
DWIDTH 6 0
BBX 2 7 2 -1
BITMAP
40
80
80
80
80
80
40
ENDCHAR
STARTCHAR parenright
ENCODING 41
SWIDTH 640 0
DWIDTH 6 0
BBX 2 7 2 -1
BITMAP
80
40
40
40
40
40
80
ENDCHAR
STARTCHAR asterisk
ENCODING 42
SWIDTH 640 0
DWIDTH 6 0
BBX 5 5 0 0
BITMAP
88
50
F8
50
88
ENDCHAR
STARTCHAR plus
ENCODING 43
SWIDTH 640 0
DWIDTH 6 0
BBX 5 5 0 0
BITMAP
20
20
F8
20
20
ENDCHAR
STARTCHAR comma
ENCODING 44
SWIDTH 640 0
DWIDTH 6 0
BBX 2 4 2 -2
BITMAP
C0
40
40
80
ENDCHAR
STARTCHAR hyphen
ENCODING 45
SWIDTH 640 0
DWIDTH 6 0
BBX 5 1 0 2
BITMAP
F8
ENDCHAR
STARTCHAR period
ENCODING 46
SWIDTH 640 0
DWIDTH 6 0
BBX 2 2 2 0
BITMAP
C0
C0
ENDCHAR
STARTCHAR slash
ENCODING 47
SWIDTH 640 0
DWIDTH 6 0
BBX 4 6 1 0
BITMAP
10
10
20
40
80
80
ENDCHAR
STARTCHAR zero
ENCODING 48
SWIDTH 640 0
DWIDTH 6 0
BBX 4 6 1 0
BITMAP
60
90
B0
D0
90
60
ENDCHAR
STARTCHAR one
ENCODING 49
SWIDTH 640 0
DWIDTH 6 0
BBX 3 6 1 0
BITMAP
40
C0
40
40
40
E0
ENDCHAR
STARTCHAR two
ENCODING 50
SWIDTH 640 0
DWIDTH 6 0
BBX 4 6 1 0
BITMAP
60
90
10
20
40
F0
ENDCHAR
STARTCHAR three
ENCODING 51
SWIDTH 640 0
DWIDTH 6 0
BBX 4 6 1 0
BITMAP
F0
20
60
10
10
E0
ENDCHAR
STARTCHAR four
ENCODING 52
SWIDTH 640 0
DWIDTH 6 0
BBX 5 6 0 0
BITMAP
10
30
50
90
F8
10
ENDCHAR
STARTCHAR five
ENCODING 53
SWIDTH 640 0
DWIDTH 6 0
BBX 4 6 1 0
BITMAP
F0
80
E0
10
10
E0
ENDCHAR
STARTCHAR six
ENCODING 54
SWIDTH 640 0
DWIDTH 6 0
BBX 4 6 1 0
BITMAP
60
80
E0
90
90
60
ENDCHAR
STARTCHAR seven
ENCODING 55
SWIDTH 640 0
DWIDTH 6 0
BBX 4 6 1 0
BITMAP
F0
10
10
20
40
40
ENDCHAR
STARTCHAR eight
ENCODING 56
SWIDTH 640 0
DWIDTH 6 0
BBX 4 6 1 0
BITMAP
60
90
60
90
90
60
ENDCHAR
STARTCHAR nine
ENCODING 57
SWIDTH 640 0
DWIDTH 6 0
BBX 4 6 1 0
BITMAP
60
90
90
70
10
60
ENDCHAR
STARTCHAR colon
ENCODING 58
SWIDTH 640 0
DWIDTH 6 0
BBX 2 5 2 0
BITMAP
C0
C0
00
C0
C0
ENDCHAR
STARTCHAR semicolon
ENCODING 59
SWIDTH 640 0
DWIDTH 6 0
BBX 2 7 2 -2
BITMAP
C0
C0
00
C0
40
40
80
ENDCHAR
STARTCHAR less
ENCODING 60
SWIDTH 640 0
DWIDTH 6 0
BBX 5 5 0 0
BITMAP
18
60
80
60
18
ENDCHAR
STARTCHAR equal
ENCODING 61
SWIDTH 640 0
DWIDTH 6 0
BBX 5 3 0 1
BITMAP
F8
00
F8
ENDCHAR
STARTCHAR greater
ENCODING 62
SWIDTH 640 0
DWIDTH 6 0
BBX 5 5 0 0
BITMAP
C0
30
08
30
C0
ENDCHAR
STARTCHAR question
ENCODING 63
SWIDTH 640 0
DWIDTH 6 0
BBX 4 7 1 0
BITMAP
60
90
10
60
40
00
40
ENDCHAR
STARTCHAR at
ENCODING 64
SWIDTH 640 0
DWIDTH 6 0
BBX 5 6 0 0
BITMAP
70
90
A8
B0
80
70
ENDCHAR
STARTCHAR A
ENCODING 65
SWIDTH 640 0
DWIDTH 6 0
BBX 5 6 0 0
BITMAP
20
50
88
F8
88
88
ENDCHAR
STARTCHAR B
ENCODING 66
SWIDTH 640 0
DWIDTH 6 0
BBX 5 6 0 0
BITMAP
F0
88
F0
88
88
F0
ENDCHAR
STARTCHAR C
ENCODING 67
SWIDTH 640 0
DWIDTH 6 0
BBX 4 6 1 0
BITMAP
60
90
80
80
90
60
ENDCHAR
STARTCHAR D
ENCODING 68
SWIDTH 640 0
DWIDTH 6 0
BBX 4 6 1 0
BITMAP
E0
90
90
90
90
E0
ENDCHAR
STARTCHAR E
ENCODING 69
SWIDTH 640 0
DWIDTH 6 0
BBX 4 6 1 0
BITMAP
F0
80
E0
80
80
F0
ENDCHAR
STARTCHAR F
ENCODING 70
SWIDTH 640 0
DWIDTH 6 0
BBX 4 6 1 0
BITMAP
F0
80
E0
80
80
80
ENDCHAR
STARTCHAR G
ENCODING 71
SWIDTH 640 0
DWIDTH 6 0
BBX 4 6 1 0
BITMAP
60
90
80
B0
90
60
ENDCHAR
STARTCHAR H
ENCODING 72
SWIDTH 640 0
DWIDTH 6 0
BBX 4 6 1 0
BITMAP
90
90
F0
90
90
90
ENDCHAR
STARTCHAR I
ENCODING 73
SWIDTH 640 0
DWIDTH 6 0
BBX 3 6 1 0
BITMAP
E0
40
40
40
40
E0
ENDCHAR
STARTCHAR J
ENCODING 74
SWIDTH 640 0
DWIDTH 6 0
BBX 5 6 0 0
BITMAP
38
10
10
10
90
60
ENDCHAR
STARTCHAR K
ENCODING 75
SWIDTH 640 0
DWIDTH 6 0
BBX 4 6 1 0
BITMAP
90
A0
C0
A0
90
90
ENDCHAR
STARTCHAR L
ENCODING 76
SWIDTH 640 0
DWIDTH 6 0
BBX 4 6 1 0
BITMAP
80
80
80
80
80
F0
ENDCHAR
STARTCHAR M
ENCODING 77
SWIDTH 640 0
DWIDTH 6 0
BBX 5 6 0 0
BITMAP
88
D8
A8
A8
88
88
ENDCHAR
STARTCHAR N
ENCODING 78
SWIDTH 640 0
DWIDTH 6 0
BBX 4 6 1 0
BITMAP
90
D0
B0
90
90
90
ENDCHAR
STARTCHAR O
ENCODING 79
SWIDTH 640 0
DWIDTH 6 0
BBX 5 6 0 0
BITMAP
70
88
88
88
88
70
ENDCHAR
STARTCHAR P
ENCODING 80
SWIDTH 640 0
DWIDTH 6 0
BBX 4 6 1 0
BITMAP
E0
90
90
E0
80
80
ENDCHAR
STARTCHAR Q
ENCODING 81
SWIDTH 640 0
DWIDTH 6 0
BBX 4 7 1 -1
BITMAP
60
90
90
D0
B0
60
10
ENDCHAR
STARTCHAR R
ENCODING 82
SWIDTH 640 0
DWIDTH 6 0
BBX 4 6 1 0
BITMAP
E0
90
90
E0
90
90
ENDCHAR
STARTCHAR S
ENCODING 83
SWIDTH 640 0
DWIDTH 6 0
BBX 4 6 1 0
BITMAP
60
90
40
20
90
60
ENDCHAR
STARTCHAR T
ENCODING 84
SWIDTH 640 0
DWIDTH 6 0
BBX 5 6 0 0
BITMAP
F8
20
20
20
20
20
ENDCHAR
STARTCHAR U
ENCODING 85
SWIDTH 640 0
DWIDTH 6 0
BBX 4 6 1 0
BITMAP
90
90
90
90
90
60
ENDCHAR
STARTCHAR V
ENCODING 86
SWIDTH 640 0
DWIDTH 6 0
BBX 4 6 1 0
BITMAP
90
90
90
F0
60
60
ENDCHAR
STARTCHAR W
ENCODING 87
SWIDTH 640 0
DWIDTH 6 0
BBX 5 6 0 0
BITMAP
88
88
A8
A8
D8
88
ENDCHAR
STARTCHAR X
ENCODING 88
SWIDTH 640 0
DWIDTH 6 0
BBX 5 6 0 0
BITMAP
88
50
20
20
50
88
ENDCHAR
STARTCHAR Y
ENCODING 89
SWIDTH 640 0
DWIDTH 6 0
BBX 5 6 0 0
BITMAP
88
88
50
20
20
20
ENDCHAR
STARTCHAR Z
ENCODING 90
SWIDTH 640 0
DWIDTH 6 0
BBX 4 6 1 0
BITMAP
F0
10
20
40
80
F0
ENDCHAR
STARTCHAR bracketleft
ENCODING 91
SWIDTH 640 0
DWIDTH 6 0
BBX 3 6 1 0
BITMAP
E0
80
80
80
80
E0
ENDCHAR
STARTCHAR backslash
ENCODING 92
SWIDTH 640 0
DWIDTH 6 0
BBX 4 6 1 0
BITMAP
80
80
40
20
10
10
ENDCHAR
STARTCHAR bracketright
ENCODING 93
SWIDTH 640 0
DWIDTH 6 0
BBX 3 6 1 0
BITMAP
E0
20
20
20
20
E0
ENDCHAR
STARTCHAR asciicircum
ENCODING 94
SWIDTH 640 0
DWIDTH 6 0
BBX 5 3 0 3
BITMAP
20
50
88
ENDCHAR
STARTCHAR underscore
ENCODING 95
SWIDTH 640 0
DWIDTH 6 0
BBX 5 1 0 -2
BITMAP
F8
ENDCHAR
STARTCHAR grave
ENCODING 96
SWIDTH 640 0
DWIDTH 6 0
BBX 2 2 2 4
BITMAP
80
40
ENDCHAR
STARTCHAR a
ENCODING 97
SWIDTH 640 0
DWIDTH 6 0
BBX 4 4 1 0
BITMAP
70
90
90
70
ENDCHAR
STARTCHAR b
ENCODING 98
SWIDTH 640 0
DWIDTH 6 0
BBX 4 6 1 0
BITMAP
80
80
E0
90
90
E0
ENDCHAR
STARTCHAR c
ENCODING 99
SWIDTH 640 0
DWIDTH 6 0
BBX 4 4 1 0
BITMAP
70
80
80
70
ENDCHAR
STARTCHAR d
ENCODING 100
SWIDTH 640 0
DWIDTH 6 0
BBX 4 6 1 0
BITMAP
10
10
70
90
90
70
ENDCHAR
STARTCHAR e
ENCODING 101
SWIDTH 640 0
DWIDTH 6 0
BBX 4 4 1 0
BITMAP
60
B0
C0
70
ENDCHAR
STARTCHAR f
ENCODING 102
SWIDTH 640 0
DWIDTH 6 0
BBX 4 6 1 0
BITMAP
20
50
40
E0
40
40
ENDCHAR
STARTCHAR g
ENCODING 103
SWIDTH 640 0
DWIDTH 6 0
BBX 4 6 1 -2
BITMAP
60
90
90
70
10
60
ENDCHAR
STARTCHAR h
ENCODING 104
SWIDTH 640 0
DWIDTH 6 0
BBX 4 6 1 0
BITMAP
80
80
E0
90
90
90
ENDCHAR
STARTCHAR i
ENCODING 105
SWIDTH 640 0
DWIDTH 6 0
BBX 3 6 1 0
BITMAP
40
00
C0
40
40
E0
ENDCHAR
STARTCHAR j
ENCODING 106
SWIDTH 640 0
DWIDTH 6 0
BBX 3 8 1 -2
BITMAP
20
00
60
20
20
20
A0
40
ENDCHAR
STARTCHAR k
ENCODING 107
SWIDTH 640 0
DWIDTH 6 0
BBX 4 6 1 0
BITMAP
80
80
A0
C0
A0
90
ENDCHAR
STARTCHAR l
ENCODING 108
SWIDTH 640 0
DWIDTH 6 0
BBX 3 6 1 0
BITMAP
C0
40
40
40
40
E0
ENDCHAR
STARTCHAR m
ENCODING 109
SWIDTH 640 0
DWIDTH 6 0
BBX 5 4 0 0
BITMAP
D0
A8
A8
88
ENDCHAR
STARTCHAR n
ENCODING 110
SWIDTH 640 0
DWIDTH 6 0
BBX 4 4 1 0
BITMAP
E0
90
90
90
ENDCHAR
STARTCHAR o
ENCODING 111
SWIDTH 640 0
DWIDTH 6 0
BBX 4 4 1 0
BITMAP
60
90
90
60
ENDCHAR
STARTCHAR p
ENCODING 112
SWIDTH 640 0
DWIDTH 6 0
BBX 4 6 1 -2
BITMAP
E0
90
90
E0
80
80
ENDCHAR
STARTCHAR q
ENCODING 113
SWIDTH 640 0
DWIDTH 6 0
BBX 4 6 1 -2
BITMAP
70
90
90
70
10
10
ENDCHAR
STARTCHAR r
ENCODING 114
SWIDTH 640 0
DWIDTH 6 0
BBX 4 4 1 0
BITMAP
A0
D0
80
80
ENDCHAR
STARTCHAR s
ENCODING 115
SWIDTH 640 0
DWIDTH 6 0
BBX 4 4 1 0
BITMAP
70
C0
30
E0
ENDCHAR
STARTCHAR t
ENCODING 116
SWIDTH 640 0
DWIDTH 6 0
BBX 4 6 1 0
BITMAP
40
40
E0
40
50
20
ENDCHAR
STARTCHAR u
ENCODING 117
SWIDTH 640 0
DWIDTH 6 0
BBX 4 4 1 0
BITMAP
90
90
90
70
ENDCHAR
STARTCHAR v
ENCODING 118
SWIDTH 640 0
DWIDTH 6 0
BBX 4 4 1 0
BITMAP
90
90
60
60
ENDCHAR
STARTCHAR w
ENCODING 119
SWIDTH 640 0
DWIDTH 6 0
BBX 5 4 0 0
BITMAP
88
A8
A8
50
ENDCHAR
STARTCHAR x
ENCODING 120
SWIDTH 640 0
DWIDTH 6 0
BBX 4 4 1 0
BITMAP
90
60
60
90
ENDCHAR
STARTCHAR y
ENCODING 121
SWIDTH 640 0
DWIDTH 6 0
BBX 4 6 1 -2
BITMAP
90
90
90
70
90
60
ENDCHAR
STARTCHAR z
ENCODING 122
SWIDTH 640 0
DWIDTH 6 0
BBX 4 4 1 0
BITMAP
F0
20
40
F0
ENDCHAR
STARTCHAR braceleft
ENCODING 123
SWIDTH 640 0
DWIDTH 6 0
BBX 3 7 1 0
BITMAP
20
40
40
80
40
40
20
ENDCHAR
STARTCHAR bar
ENCODING 124
SWIDTH 640 0
DWIDTH 6 0
BBX 1 7 2 -1
BITMAP
80
80
80
80
80
80
80
ENDCHAR
STARTCHAR braceright
ENCODING 125
SWIDTH 640 0
DWIDTH 6 0
BBX 3 7 1 0
BITMAP
80
40
40
20
40
40
80
ENDCHAR
STARTCHAR asciitilde
ENCODING 126
SWIDTH 640 0
DWIDTH 6 0
BBX 4 2 1 3
BITMAP
50
A0
ENDCHAR
ENDFONT
