STARTFONT 2.1
FONT -Misc-Fixed-Medium-O-Normal--13-120-75-75-C-70-ISO10646-1
SIZE 13 75 75
FONTBOUNDINGBOX 7 12 0 -2
COMMENT "Generated by fontforge, http://fontforge.sourceforge.net"
STARTPROPERTIES 25
FONTNAME_REGISTRY ""
FOUNDRY "Misc"
FAMILY_NAME "Fixed"
WEIGHT_NAME "Medium"
SLANT "O"
SETWIDTH_NAME "Normal"
ADD_STYLE_NAME ""
PIXEL_SIZE 13
POINT_SIZE 120
RESOLUTION_X 75
RESOLUTION_Y 75
SPACING "C"
AVERAGE_WIDTH 70
CHARSET_REGISTRY "ISO10646"
CHARSET_ENCODING "1"
COPYRIGHT "Public domain font.  Share and enjoy."
DESTINATION 1
_XMBDFED_INFO "Edited with xmbdfed 4.5."
CAP_HEIGHT 9
X_HEIGHT 6
WEIGHT 10
QUAD_WIDTH 7
DEFAULT_CHAR 0
FONT_DESCENT 2
FONT_ASCENT 11
ENDPROPERTIES
CHARS 95
STARTCHAR space
ENCODING 32
SWIDTH 497 0
DWIDTH 7 0
BBX 1 1 6 -2
BITMAP
00
ENDCHAR
STARTCHAR exclam
ENCODING 33
SWIDTH 497 0
DWIDTH 7 0
BBX 2 9 2 0
BITMAP
40
40
40
40
80
80
80
00
80
ENDCHAR
STARTCHAR quotedbl
ENCODING 34
SWIDTH 497 0
DWIDTH 7 0
BBX 3 3 2 6
BITMAP
A0
A0
A0
ENDCHAR
STARTCHAR numbersign
ENCODING 35
SWIDTH 497 0
DWIDTH 7 0
BBX 6 7 0 1
BITMAP
28
28
7C
28
F8
50
50
ENDCHAR
STARTCHAR dollar
ENCODING 36
SWIDTH 497 0
DWIDTH 7 0
BBX 6 7 0 1
BITMAP
10
3C
50
38
28
F0
20
ENDCHAR
STARTCHAR percent
ENCODING 37
SWIDTH 497 0
DWIDTH 7 0
BBX 7 9 0 0
BITMAP
22
52
24
08
10
20
48
94
88
ENDCHAR
STARTCHAR ampersand
ENCODING 38
SWIDTH 497 0
DWIDTH 7 0
BBX 6 8 0 0
BITMAP
18
24
24
38
50
94
88
74
ENDCHAR
STARTCHAR quotesingle
ENCODING 39
SWIDTH 497 0
DWIDTH 7 0
BBX 1 3 3 6
BITMAP
80
80
80
ENDCHAR
STARTCHAR parenleft
ENCODING 40
SWIDTH 497 0
DWIDTH 7 0
BBX 4 9 1 0
BITMAP
10
20
40
40
80
80
40
40
20
ENDCHAR
STARTCHAR parenright
ENCODING 41
SWIDTH 497 0
DWIDTH 7 0
BBX 4 9 1 0
BITMAP
40
20
20
10
10
20
20
40
80
ENDCHAR
STARTCHAR asterisk
ENCODING 42
SWIDTH 497 0
DWIDTH 7 0
BBX 5 5 1 2
BITMAP
48
30
F8
60
90
ENDCHAR
STARTCHAR plus
ENCODING 43
SWIDTH 497 0
DWIDTH 7 0
BBX 4 5 1 2
BITMAP
20
20
F0
40
40
ENDCHAR
STARTCHAR comma
ENCODING 44
SWIDTH 497 0
DWIDTH 7 0
BBX 4 3 1 -1
BITMAP
70
60
80
ENDCHAR
STARTCHAR hyphen
ENCODING 45
SWIDTH 497 0
DWIDTH 7 0
BBX 5 1 1 4
BITMAP
F8
ENDCHAR
STARTCHAR period
ENCODING 46
SWIDTH 497 0
DWIDTH 7 0
BBX 3 3 2 -1
BITMAP
40
E0
40
ENDCHAR
STARTCHAR slash
ENCODING 47
SWIDTH 497 0
DWIDTH 7 0
BBX 6 9 0 0
BITMAP
04
04
08
10
10
20
40
80
80
ENDCHAR
STARTCHAR zero
ENCODING 48
SWIDTH 497 0
DWIDTH 7 0
BBX 7 9 0 0
BITMAP
18
24
46
4A
52
A4
C4
48
30
ENDCHAR
STARTCHAR one
ENCODING 49
SWIDTH 497 0
DWIDTH 7 0
BBX 5 9 1 0
BITMAP
10
30
50
10
10
20
20
20
F8
ENDCHAR
STARTCHAR two
ENCODING 50
SWIDTH 497 0
DWIDTH 7 0
BBX 7 9 0 0
BITMAP
3C
42
42
02
0C
30
40
80
FC
ENDCHAR
STARTCHAR three
ENCODING 51
SWIDTH 497 0
DWIDTH 7 0
BBX 7 9 0 0
BITMAP
7E
02
04
08
18
04
04
84
78
ENDCHAR
STARTCHAR four
ENCODING 52
SWIDTH 497 0
DWIDTH 7 0
BBX 6 9 0 0
BITMAP
04
0C
14
24
48
88
FC
08
08
ENDCHAR
STARTCHAR five
ENCODING 53
SWIDTH 497 0
DWIDTH 7 0
BBX 7 9 0 0
BITMAP
3E
20
20
5C
62
02
04
84
78
ENDCHAR
STARTCHAR six
ENCODING 54
SWIDTH 497 0
DWIDTH 7 0
BBX 6 9 0 0
BITMAP
1C
20
40
40
78
84
84
84
78
ENDCHAR
STARTCHAR seven
ENCODING 55
SWIDTH 497 0
DWIDTH 7 0
BBX 6 9 0 0
BITMAP
FC
04
08
10
20
40
40
80
80
ENDCHAR
STARTCHAR eight
ENCODING 56
SWIDTH 497 0
DWIDTH 7 0
BBX 7 9 0 0
BITMAP
3C
42
42
42
7C
84
84
84
78
ENDCHAR
STARTCHAR nine
ENCODING 57
SWIDTH 497 0
DWIDTH 7 0
BBX 6 9 0 0
BITMAP
78
84
84
8C
74
08
08
10
E0
ENDCHAR
STARTCHAR colon
ENCODING 58
SWIDTH 497 0
DWIDTH 7 0
BBX 4 8 1 -1
BITMAP
20
70
20
00
00
40
E0
40
ENDCHAR
STARTCHAR semicolon
ENCODING 59
SWIDTH 497 0
DWIDTH 7 0
BBX 5 8 1 -1
BITMAP
10
38
10
00
00
70
60
80
ENDCHAR
STARTCHAR less
ENCODING 60
SWIDTH 497 0
DWIDTH 7 0
BBX 5 9 1 0
BITMAP
08
10
20
40
80
80
40
20
10
ENDCHAR
STARTCHAR equal
ENCODING 61
SWIDTH 497 0
DWIDTH 7 0
BBX 7 4 0 2
BITMAP
7E
00
00
FC
ENDCHAR
STARTCHAR greater
ENCODING 62
SWIDTH 497 0
DWIDTH 7 0
BBX 5 9 1 0
BITMAP
40
20
10
08
08
10
20
40
80
ENDCHAR
STARTCHAR question
ENCODING 63
SWIDTH 497 0
DWIDTH 7 0
BBX 6 9 0 0
BITMAP
78
84
84
08
10
20
20
00
20
ENDCHAR
STARTCHAR at
ENCODING 64
SWIDTH 497 0
DWIDTH 7 0
BBX 7 9 0 0
BITMAP
3C
42
42
4E
52
AC
94
80
78
ENDCHAR
STARTCHAR A
ENCODING 65
SWIDTH 497 0
DWIDTH 7 0
BBX 7 9 0 0
BITMAP
18
24
42
42
42
7C
84
84
84
ENDCHAR
STARTCHAR B
ENCODING 66
SWIDTH 497 0
DWIDTH 7 0
BBX 7 9 0 0
BITMAP
7C
22
22
22
3C
44
44
44
F8
ENDCHAR
STARTCHAR C
ENCODING 67
SWIDTH 497 0
DWIDTH 7 0
BBX 7 9 0 0
BITMAP
3C
42
40
40
40
80
80
84
78
ENDCHAR
STARTCHAR D
ENCODING 68
SWIDTH 497 0
DWIDTH 7 0
BBX 7 9 0 0
BITMAP
7C
22
22
22
22
44
44
44
F8
ENDCHAR
STARTCHAR E
ENCODING 69
SWIDTH 497 0
DWIDTH 7 0
BBX 7 9 0 0
BITMAP
7E
40
40
40
78
80
80
80
FC
ENDCHAR
STARTCHAR F
ENCODING 70
SWIDTH 497 0
DWIDTH 7 0
BBX 7 9 0 0
BITMAP
7E
40
40
40
78
80
80
80
80
ENDCHAR
STARTCHAR G
ENCODING 71
SWIDTH 497 0
DWIDTH 7 0
BBX 7 9 0 0
BITMAP
3C
42
40
40
40
9C
84
8C
74
ENDCHAR
STARTCHAR H
ENCODING 72
SWIDTH 497 0
DWIDTH 7 0
BBX 7 9 0 0
BITMAP
42
42
42
42
7C
84
84
84
84
ENDCHAR
STARTCHAR I
ENCODING 73
SWIDTH 497 0
DWIDTH 7 0
BBX 6 9 0 0
BITMAP
7C
10
10
10
10
20
20
20
F8
ENDCHAR
STARTCHAR J
ENCODING 74
SWIDTH 497 0
DWIDTH 7 0
BBX 7 9 0 0
BITMAP
0E
04
04
04
04
08
08
88
70
ENDCHAR
STARTCHAR K
ENCODING 75
SWIDTH 497 0
DWIDTH 7 0
BBX 7 9 0 0
BITMAP
42
44
48
50
60
A0
90
88
84
ENDCHAR
STARTCHAR L
ENCODING 76
SWIDTH 497 0
DWIDTH 7 0
BBX 6 9 0 0
BITMAP
40
40
40
40
40
80
80
80
FC
ENDCHAR
STARTCHAR M
ENCODING 77
SWIDTH 497 0
DWIDTH 7 0
BBX 7 9 0 0
BITMAP
42
66
66
5A
5A
84
84
84
84
ENDCHAR
STARTCHAR N
ENCODING 78
SWIDTH 497 0
DWIDTH 7 0
BBX 7 9 0 0
BITMAP
42
42
62
52
4A
8C
84
84
84
ENDCHAR
STARTCHAR O
ENCODING 79
SWIDTH 497 0
DWIDTH 7 0
BBX 7 9 0 0
BITMAP
3C
42
42
42
42
84
84
84
78
ENDCHAR
STARTCHAR P
ENCODING 80
SWIDTH 497 0
DWIDTH 7 0
BBX 7 9 0 0
BITMAP
7C
42
42
42
7C
80
80
80
80
ENDCHAR
STARTCHAR Q
ENCODING 81
SWIDTH 497 0
DWIDTH 7 0
BBX 7 10 0 -1
BITMAP
3C
42
42
42
42
84
A4
94
78
04
ENDCHAR
STARTCHAR R
ENCODING 82
SWIDTH 497 0
DWIDTH 7 0
BBX 7 9 0 0
BITMAP
7C
42
42
42
7C
A0
90
88
84
ENDCHAR
STARTCHAR S
ENCODING 83
SWIDTH 497 0
DWIDTH 7 0
BBX 7 9 0 0
BITMAP
3C
42
40
40
38
04
04
84
78
ENDCHAR
STARTCHAR T
ENCODING 84
SWIDTH 497 0
DWIDTH 7 0
BBX 5 9 1 0
BITMAP
F8
20
20
20
20
40
40
40
40
ENDCHAR
STARTCHAR U
ENCODING 85
SWIDTH 497 0
DWIDTH 7 0
BBX 7 9 0 0
BITMAP
42
42
42
42
42
84
84
84
78
ENDCHAR
STARTCHAR V
ENCODING 86
SWIDTH 497 0
DWIDTH 7 0
BBX 6 9 0 0
BITMAP
84
84
88
88
50
50
60
60
60
ENDCHAR
STARTCHAR W
ENCODING 87
SWIDTH 497 0
DWIDTH 7 0
BBX 7 9 0 0
BITMAP
42
42
42
42
5A
B4
CC
CC
84
ENDCHAR
STARTCHAR X
ENCODING 88
SWIDTH 497 0
DWIDTH 7 0
BBX 7 9 0 0
BITMAP
42
44
24
28
10
28
48
44
84
ENDCHAR
STARTCHAR Y
ENCODING 89
SWIDTH 497 0
DWIDTH 7 0
BBX 5 9 1 0
BITMAP
88
88
50
50
20
20
40
40
40
ENDCHAR
STARTCHAR Z
ENCODING 90
SWIDTH 497 0
DWIDTH 7 0
BBX 7 9 0 0
BITMAP
7E
02
04
08
10
20
40
80
FC
ENDCHAR
STARTCHAR bracketleft
ENCODING 91
SWIDTH 497 0
DWIDTH 7 0
BBX 5 11 1 -1
BITMAP
78
40
40
40
40
40
80
80
80
80
F0
ENDCHAR
STARTCHAR backslash
ENCODING 92
SWIDTH 497 0
DWIDTH 7 0
BBX 4 9 1 0
BITMAP
80
80
40
40
20
20
20
10
10
ENDCHAR
STARTCHAR bracketright
ENCODING 93
SWIDTH 497 0
DWIDTH 7 0
BBX 5 11 1 -1
BITMAP
78
08
08
08
08
08
10
10
10
10
F0
ENDCHAR
STARTCHAR asciicircum
ENCODING 94
SWIDTH 497 0
DWIDTH 7 0
BBX 5 3 1 6
BITMAP
20
50
88
ENDCHAR
STARTCHAR underscore
ENCODING 95
SWIDTH 497 0
DWIDTH 7 0
BBX 6 1 0 -1
BITMAP
FC
ENDCHAR
STARTCHAR grave
ENCODING 96
SWIDTH 497 0
DWIDTH 7 0
BBX 2 2 2 8
BITMAP
80
40
ENDCHAR
STARTCHAR a
ENCODING 97
SWIDTH 497 0
DWIDTH 7 0
BBX 7 6 0 0
BITMAP
3C
02
7C
84
8C
74
ENDCHAR
STARTCHAR b
ENCODING 98
SWIDTH 497 0
DWIDTH 7 0
BBX 7 9 0 0
BITMAP
40
40
40
5C
62
42
84
C4
B8
ENDCHAR
STARTCHAR c
ENCODING 99
SWIDTH 497 0
DWIDTH 7 0
BBX 7 6 0 0
BITMAP
3C
42
80
80
84
78
ENDCHAR
STARTCHAR d
ENCODING 100
SWIDTH 497 0
DWIDTH 7 0
BBX 7 9 0 0
BITMAP
02
02
02
3A
44
84
84
8C
74
ENDCHAR
STARTCHAR e
ENCODING 101
SWIDTH 497 0
DWIDTH 7 0
BBX 7 6 0 0
BITMAP
3C
42
7C
80
84
78
ENDCHAR
STARTCHAR f
ENCODING 102
SWIDTH 497 0
DWIDTH 7 0
BBX 6 9 0 0
BITMAP
38
44
40
40
F0
40
80
80
80
ENDCHAR
STARTCHAR g
ENCODING 103
SWIDTH 497 0
DWIDTH 7 0
BBX 7 8 0 -2
BITMAP
3A
44
88
70
80
78
84
78
ENDCHAR
STARTCHAR h
ENCODING 104
SWIDTH 497 0
DWIDTH 7 0
BBX 7 9 0 0
BITMAP
20
20
40
5C
62
42
84
84
84
ENDCHAR
STARTCHAR i
ENCODING 105
SWIDTH 497 0
DWIDTH 7 0
BBX 5 8 1 0
BITMAP
10
00
30
10
10
20
20
F8
ENDCHAR
STARTCHAR j
ENCODING 106
SWIDTH 497 0
DWIDTH 7 0
BBX 6 10 0 -2
BITMAP
04
00
0C
04
04
08
08
88
88
70
ENDCHAR
STARTCHAR k
ENCODING 107
SWIDTH 497 0
DWIDTH 7 0
BBX 6 9 0 0
BITMAP
40
40
40
44
58
60
90
88
84
ENDCHAR
STARTCHAR l
ENCODING 108
SWIDTH 497 0
DWIDTH 7 0
BBX 5 9 1 0
BITMAP
30
10
10
10
10
20
20
20
F8
ENDCHAR
STARTCHAR m
ENCODING 109
SWIDTH 497 0
DWIDTH 7 0
BBX 6 6 0 0
BITMAP
68
54
54
A8
A8
88
ENDCHAR
STARTCHAR n
ENCODING 110
SWIDTH 497 0
DWIDTH 7 0
BBX 7 6 0 0
BITMAP
5C
62
42
84
84
84
ENDCHAR
STARTCHAR o
ENCODING 111
SWIDTH 497 0
DWIDTH 7 0
BBX 7 6 0 0
BITMAP
3C
42
42
84
84
78
ENDCHAR
STARTCHAR p
ENCODING 112
SWIDTH 497 0
DWIDTH 7 0
BBX 7 8 0 -2
BITMAP
5C
62
42
C4
B8
80
80
80
ENDCHAR
STARTCHAR q
ENCODING 113
SWIDTH 497 0
DWIDTH 7 0
BBX 7 8 0 -2
BITMAP
3A
46
82
8C
74
04
04
04
ENDCHAR
STARTCHAR r
ENCODING 114
SWIDTH 497 0
DWIDTH 7 0
BBX 6 6 0 0
BITMAP
B8
44
40
80
80
80
ENDCHAR
STARTCHAR s
ENCODING 115
SWIDTH 497 0
DWIDTH 7 0
BBX 7 6 0 0
BITMAP
3C
42
20
18
84
78
ENDCHAR
STARTCHAR t
ENCODING 116
SWIDTH 497 0
DWIDTH 7 0
BBX 5 8 1 0
BITMAP
40
40
F0
40
80
80
88
70
ENDCHAR
STARTCHAR u
ENCODING 117
SWIDTH 497 0
DWIDTH 7 0
BBX 7 6 0 0
BITMAP
42
42
42
84
8C
74
ENDCHAR
STARTCHAR v
ENCODING 118
SWIDTH 497 0
DWIDTH 7 0
BBX 5 6 1 0
BITMAP
88
88
90
90
A0
40
ENDCHAR
STARTCHAR w
ENCODING 119
SWIDTH 497 0
DWIDTH 7 0
BBX 6 6 0 0
BITMAP
44
44
54
A8
A8
50
ENDCHAR
STARTCHAR x
ENCODING 120
SWIDTH 497 0
DWIDTH 7 0
BBX 7 6 0 0
BITMAP
42
24
18
30
48
84
ENDCHAR
STARTCHAR y
ENCODING 121
SWIDTH 497 0
DWIDTH 7 0
BBX 7 8 0 -2
BITMAP
42
42
84
8C
74
04
84
78
ENDCHAR
STARTCHAR z
ENCODING 122
SWIDTH 497 0
DWIDTH 7 0
BBX 7 6 0 0
BITMAP
7E
04
18
20
40
FC
ENDCHAR
STARTCHAR braceleft
ENCODING 123
SWIDTH 497 0
DWIDTH 7 0
BBX 5 11 1 -1
BITMAP
38
40
40
40
20
C0
40
80
80
80
70
ENDCHAR
STARTCHAR bar
ENCODING 124
SWIDTH 497 0
DWIDTH 7 0
BBX 2 9 2 0
BITMAP
40
40
40
40
40
80
80
80
80
ENDCHAR
STARTCHAR braceright
ENCODING 125
SWIDTH 497 0
DWIDTH 7 0
BBX 6 11 0 -1
BITMAP
70
08
08
08
10
1C
20
10
10
10
E0
ENDCHAR
STARTCHAR asciitilde
ENCODING 126
SWIDTH 497 0
DWIDTH 7 0
BBX 5 3 1 6
BITMAP
48
A8
90
ENDCHAR
ENDFONT
