STARTFONT 2.1
FONT -Misc-Fixed-Medium-O-Normal--13-120-75-75-C-80-ISO10646-1
SIZE 13 75 75
FONTBOUNDINGBOX 8 12 0 -2
COMMENT "Generated by fontforge, http://fontforge.sourceforge.net"
STARTPROPERTIES 24
FONTNAME_REGISTRY ""
FOUNDRY "Misc"
FAMILY_NAME "Fixed"
WEIGHT_NAME "Medium"
SLANT "O"
SETWIDTH_NAME "Normal"
ADD_STYLE_NAME ""
PIXEL_SIZE 13
POINT_SIZE 120
RESOLUTION_X 75
RESOLUTION_Y 75
SPACING "C"
AVERAGE_WIDTH 80
CHARSET_REGISTRY "ISO10646"
CHARSET_ENCODING "1"
COPYRIGHT "Public domain font.  Share and enjoy."
_XMBDFED_INFO "Edited with xmbdfed 4.5."
CAP_HEIGHT 9
X_HEIGHT 6
WEIGHT 10
QUAD_WIDTH 8
DEFAULT_CHAR 0
FONT_DESCENT 2
FONT_ASCENT 11
ENDPROPERTIES
CHARS 95
STARTCHAR space
ENCODING 32
SWIDTH 568 0
DWIDTH 8 0
BBX 1 1 7 -2
BITMAP
00
ENDCHAR
STARTCHAR exclam
ENCODING 33
SWIDTH 568 0
DWIDTH 8 0
BBX 2 9 3 0
BITMAP
40
40
40
40
80
80
80
00
80
ENDCHAR
STARTCHAR quotedbl
ENCODING 34
SWIDTH 568 0
DWIDTH 8 0
BBX 4 3 2 6
BITMAP
90
90
90
ENDCHAR
STARTCHAR numbersign
ENCODING 35
SWIDTH 568 0
DWIDTH 8 0
BBX 7 7 0 1
BITMAP
24
24
7E
24
FC
48
48
ENDCHAR
STARTCHAR dollar
ENCODING 36
SWIDTH 568 0
DWIDTH 8 0
BBX 6 9 1 0
BITMAP
10
3C
50
50
38
28
28
F0
20
ENDCHAR
STARTCHAR percent
ENCODING 37
SWIDTH 568 0
DWIDTH 8 0
BBX 7 9 0 0
BITMAP
22
52
24
08
10
20
48
94
88
ENDCHAR
STARTCHAR ampersand
ENCODING 38
SWIDTH 568 0
DWIDTH 8 0
BBX 6 8 1 0
BITMAP
18
24
28
30
54
88
98
64
ENDCHAR
STARTCHAR quotesingle
ENCODING 39
SWIDTH 568 0
DWIDTH 8 0
BBX 1 3 3 6
BITMAP
80
80
80
ENDCHAR
STARTCHAR parenleft
ENCODING 40
SWIDTH 568 0
DWIDTH 8 0
BBX 4 9 2 0
BITMAP
10
20
40
40
80
80
40
40
20
ENDCHAR
STARTCHAR parenright
ENCODING 41
SWIDTH 568 0
DWIDTH 8 0
BBX 4 9 2 0
BITMAP
40
20
20
10
10
20
20
40
80
ENDCHAR
STARTCHAR asterisk
ENCODING 42
SWIDTH 568 0
DWIDTH 8 0
BBX 6 5 1 2
BITMAP
48
30
FC
60
90
ENDCHAR
STARTCHAR plus
ENCODING 43
SWIDTH 568 0
DWIDTH 8 0
BBX 5 5 1 2
BITMAP
20
20
F8
40
40
ENDCHAR
STARTCHAR comma
ENCODING 44
SWIDTH 568 0
DWIDTH 8 0
BBX 4 3 2 -1
BITMAP
70
60
80
ENDCHAR
STARTCHAR hyphen
ENCODING 45
SWIDTH 568 0
DWIDTH 8 0
BBX 5 1 1 4
BITMAP
F8
ENDCHAR
STARTCHAR period
ENCODING 46
SWIDTH 568 0
DWIDTH 8 0
BBX 3 3 2 -1
BITMAP
40
E0
40
ENDCHAR
STARTCHAR slash
ENCODING 47
SWIDTH 568 0
DWIDTH 8 0
BBX 8 9 0 0
BITMAP
01
01
02
04
18
20
40
80
80
ENDCHAR
STARTCHAR zero
ENCODING 48
SWIDTH 568 0
DWIDTH 8 0
BBX 7 9 0 0
BITMAP
18
24
46
4A
52
A4
C4
48
30
ENDCHAR
STARTCHAR one
ENCODING 49
SWIDTH 568 0
DWIDTH 8 0
BBX 5 9 1 0
BITMAP
10
30
50
10
10
20
20
20
F8
ENDCHAR
STARTCHAR two
ENCODING 50
SWIDTH 568 0
DWIDTH 8 0
BBX 7 9 0 0
BITMAP
3C
42
42
02
0C
30
40
80
FC
ENDCHAR
STARTCHAR three
ENCODING 51
SWIDTH 568 0
DWIDTH 8 0
BBX 7 9 0 0
BITMAP
7E
02
04
08
18
04
04
84
78
ENDCHAR
STARTCHAR four
ENCODING 52
SWIDTH 568 0
DWIDTH 8 0
BBX 6 9 1 0
BITMAP
04
0C
14
24
48
88
FC
10
10
ENDCHAR
STARTCHAR five
ENCODING 53
SWIDTH 568 0
DWIDTH 8 0
BBX 7 9 0 0
BITMAP
3E
20
20
5C
62
02
04
84
78
ENDCHAR
STARTCHAR six
ENCODING 54
SWIDTH 568 0
DWIDTH 8 0
BBX 7 9 0 0
BITMAP
1C
22
40
40
78
84
84
84
78
ENDCHAR
STARTCHAR seven
ENCODING 55
SWIDTH 568 0
DWIDTH 8 0
BBX 6 9 1 0
BITMAP
FC
04
08
10
20
40
40
80
80
ENDCHAR
STARTCHAR eight
ENCODING 56
SWIDTH 568 0
DWIDTH 8 0
BBX 7 9 0 0
BITMAP
3C
42
42
42
7C
84
84
84
78
ENDCHAR
STARTCHAR nine
ENCODING 57
SWIDTH 568 0
DWIDTH 8 0
BBX 6 9 1 0
BITMAP
78
84
84
8C
74
08
08
10
E0
ENDCHAR
STARTCHAR colon
ENCODING 58
SWIDTH 568 0
DWIDTH 8 0
BBX 4 8 2 -1
BITMAP
20
70
20
00
00
40
E0
40
ENDCHAR
STARTCHAR semicolon
ENCODING 59
SWIDTH 568 0
DWIDTH 8 0
BBX 5 8 1 -1
BITMAP
10
38
10
00
00
70
60
80
ENDCHAR
STARTCHAR less
ENCODING 60
SWIDTH 568 0
DWIDTH 8 0
BBX 5 9 1 0
BITMAP
08
10
20
40
80
80
40
20
10
ENDCHAR
STARTCHAR equal
ENCODING 61
SWIDTH 568 0
DWIDTH 8 0
BBX 7 4 0 2
BITMAP
7E
00
00
FC
ENDCHAR
STARTCHAR greater
ENCODING 62
SWIDTH 568 0
DWIDTH 8 0
BBX 5 9 1 0
BITMAP
40
20
10
08
08
10
20
40
80
ENDCHAR
STARTCHAR question
ENCODING 63
SWIDTH 568 0
DWIDTH 8 0
BBX 6 9 1 0
BITMAP
38
44
84
08
10
20
20
00
20
ENDCHAR
STARTCHAR at
ENCODING 64
SWIDTH 568 0
DWIDTH 8 0
BBX 7 9 0 0
BITMAP
3C
42
42
4E
52
A6
98
80
78
ENDCHAR
STARTCHAR A
ENCODING 65
SWIDTH 568 0
DWIDTH 8 0
BBX 7 9 0 0
BITMAP
18
24
42
42
42
FC
84
84
84
ENDCHAR
STARTCHAR B
ENCODING 66
SWIDTH 568 0
DWIDTH 8 0
BBX 7 9 0 0
BITMAP
78
44
42
44
78
88
84
88
F0
ENDCHAR
STARTCHAR C
ENCODING 67
SWIDTH 568 0
DWIDTH 8 0
BBX 7 9 0 0
BITMAP
3C
42
40
40
40
80
80
84
78
ENDCHAR
STARTCHAR D
ENCODING 68
SWIDTH 568 0
DWIDTH 8 0
BBX 7 9 0 0
BITMAP
78
44
42
42
42
84
84
88
F0
ENDCHAR
STARTCHAR E
ENCODING 69
SWIDTH 568 0
DWIDTH 8 0
BBX 7 9 0 0
BITMAP
7E
40
40
40
78
80
80
80
FC
ENDCHAR
STARTCHAR F
ENCODING 70
SWIDTH 568 0
DWIDTH 8 0
BBX 7 9 0 0
BITMAP
7E
40
40
40
78
80
80
80
80
ENDCHAR
STARTCHAR G
ENCODING 71
SWIDTH 568 0
DWIDTH 8 0
BBX 7 9 0 0
BITMAP
3C
42
40
40
40
9C
84
8C
74
ENDCHAR
STARTCHAR H
ENCODING 72
SWIDTH 568 0
DWIDTH 8 0
BBX 7 9 0 0
BITMAP
42
42
42
42
7C
84
84
84
84
ENDCHAR
STARTCHAR I
ENCODING 73
SWIDTH 568 0
DWIDTH 8 0
BBX 6 9 1 0
BITMAP
7C
10
10
10
10
20
20
20
F8
ENDCHAR
STARTCHAR J
ENCODING 74
SWIDTH 568 0
DWIDTH 8 0
BBX 7 9 0 0
BITMAP
1E
04
04
04
04
08
08
88
70
ENDCHAR
STARTCHAR K
ENCODING 75
SWIDTH 568 0
DWIDTH 8 0
BBX 7 9 0 0
BITMAP
42
44
48
50
60
A0
90
88
84
ENDCHAR
STARTCHAR L
ENCODING 76
SWIDTH 568 0
DWIDTH 8 0
BBX 6 9 1 0
BITMAP
40
40
40
40
40
80
80
80
FC
ENDCHAR
STARTCHAR M
ENCODING 77
SWIDTH 568 0
DWIDTH 8 0
BBX 8 9 0 0
BITMAP
41
41
63
55
49
82
82
82
82
ENDCHAR
STARTCHAR N
ENCODING 78
SWIDTH 568 0
DWIDTH 8 0
BBX 7 9 0 0
BITMAP
42
42
62
52
4A
8C
84
84
84
ENDCHAR
STARTCHAR O
ENCODING 79
SWIDTH 568 0
DWIDTH 8 0
BBX 7 9 0 0
BITMAP
3C
42
42
42
42
84
84
84
78
ENDCHAR
STARTCHAR P
ENCODING 80
SWIDTH 568 0
DWIDTH 8 0
BBX 7 9 0 0
BITMAP
7C
42
42
42
7C
80
80
80
80
ENDCHAR
STARTCHAR Q
ENCODING 81
SWIDTH 568 0
DWIDTH 8 0
BBX 7 10 0 -1
BITMAP
3C
42
42
42
84
84
A4
94
78
04
ENDCHAR
STARTCHAR R
ENCODING 82
SWIDTH 568 0
DWIDTH 8 0
BBX 7 9 0 0
BITMAP
7C
42
42
42
7C
A0
90
88
84
ENDCHAR
STARTCHAR S
ENCODING 83
SWIDTH 568 0
DWIDTH 8 0
BBX 7 9 0 0
BITMAP
3C
42
40
40
38
04
04
84
78
ENDCHAR
STARTCHAR T
ENCODING 84
SWIDTH 568 0
DWIDTH 8 0
BBX 7 9 0 0
BITMAP
FE
10
10
10
10
20
20
20
20
ENDCHAR
STARTCHAR U
ENCODING 85
SWIDTH 568 0
DWIDTH 8 0
BBX 7 9 0 0
BITMAP
42
42
42
42
84
84
84
84
78
ENDCHAR
STARTCHAR V
ENCODING 86
SWIDTH 568 0
DWIDTH 8 0
BBX 7 9 0 0
BITMAP
82
82
84
44
48
48
50
50
20
ENDCHAR
STARTCHAR W
ENCODING 87
SWIDTH 568 0
DWIDTH 8 0
BBX 8 9 0 0
BITMAP
41
41
41
41
49
92
92
AA
44
ENDCHAR
STARTCHAR X
ENCODING 88
SWIDTH 568 0
DWIDTH 8 0
BBX 8 9 0 0
BITMAP
41
41
22
14
18
28
44
82
82
ENDCHAR
STARTCHAR Y
ENCODING 89
SWIDTH 568 0
DWIDTH 8 0
BBX 7 9 0 0
BITMAP
82
82
44
28
10
10
20
20
20
ENDCHAR
STARTCHAR Z
ENCODING 90
SWIDTH 568 0
DWIDTH 8 0
BBX 7 9 0 0
BITMAP
7E
02
04
08
10
20
40
80
FC
ENDCHAR
STARTCHAR bracketleft
ENCODING 91
SWIDTH 568 0
DWIDTH 8 0
BBX 5 9 1 0
BITMAP
78
40
40
40
40
80
80
80
F0
ENDCHAR
STARTCHAR backslash
ENCODING 92
SWIDTH 568 0
DWIDTH 8 0
BBX 6 9 1 0
BITMAP
80
80
40
20
10
10
08
04
04
ENDCHAR
STARTCHAR bracketright
ENCODING 93
SWIDTH 568 0
DWIDTH 8 0
BBX 5 9 1 0
BITMAP
78
08
08
08
08
10
10
10
F0
ENDCHAR
STARTCHAR asciicircum
ENCODING 94
SWIDTH 568 0
DWIDTH 8 0
BBX 5 3 1 6
BITMAP
20
50
88
ENDCHAR
STARTCHAR underscore
ENCODING 95
SWIDTH 568 0
DWIDTH 8 0
BBX 7 1 0 -1
BITMAP
FE
ENDCHAR
STARTCHAR grave
ENCODING 96
SWIDTH 568 0
DWIDTH 8 0
BBX 2 2 3 8
BITMAP
80
40
ENDCHAR
STARTCHAR a
ENCODING 97
SWIDTH 568 0
DWIDTH 8 0
BBX 7 6 0 0
BITMAP
3C
02
7C
84
8C
74
ENDCHAR
STARTCHAR b
ENCODING 98
SWIDTH 568 0
DWIDTH 8 0
BBX 7 9 0 0
BITMAP
40
40
40
5C
62
42
84
C4
B8
ENDCHAR
STARTCHAR c
ENCODING 99
SWIDTH 568 0
DWIDTH 8 0
BBX 7 6 0 0
BITMAP
3C
42
80
80
84
78
ENDCHAR
STARTCHAR d
ENCODING 100
SWIDTH 568 0
DWIDTH 8 0
BBX 7 9 0 0
BITMAP
02
02
02
3A
44
84
84
8C
74
ENDCHAR
STARTCHAR e
ENCODING 101
SWIDTH 568 0
DWIDTH 8 0
BBX 7 6 0 0
BITMAP
3C
42
7C
80
84
78
ENDCHAR
STARTCHAR f
ENCODING 102
SWIDTH 568 0
DWIDTH 8 0
BBX 6 9 1 0
BITMAP
38
44
40
40
F8
40
80
80
80
ENDCHAR
STARTCHAR g
ENCODING 103
SWIDTH 568 0
DWIDTH 8 0
BBX 7 8 0 -2
BITMAP
3A
44
88
70
80
78
84
78
ENDCHAR
STARTCHAR h
ENCODING 104
SWIDTH 568 0
DWIDTH 8 0
BBX 7 9 0 0
BITMAP
20
20
40
5C
62
42
84
84
84
ENDCHAR
STARTCHAR i
ENCODING 105
SWIDTH 568 0
DWIDTH 8 0
BBX 5 8 1 0
BITMAP
10
00
30
10
10
20
20
F8
ENDCHAR
STARTCHAR j
ENCODING 106
SWIDTH 568 0
DWIDTH 8 0
BBX 6 10 1 -2
BITMAP
04
00
0C
04
04
08
08
88
88
70
ENDCHAR
STARTCHAR k
ENCODING 107
SWIDTH 568 0
DWIDTH 8 0
BBX 6 9 1 0
BITMAP
40
40
40
44
58
60
90
88
84
ENDCHAR
STARTCHAR l
ENCODING 108
SWIDTH 568 0
DWIDTH 8 0
BBX 5 9 1 0
BITMAP
30
10
10
10
10
20
20
20
F8
ENDCHAR
STARTCHAR m
ENCODING 109
SWIDTH 568 0
DWIDTH 8 0
BBX 8 6 0 0
BITMAP
76
49
49
92
92
82
ENDCHAR
STARTCHAR n
ENCODING 110
SWIDTH 568 0
DWIDTH 8 0
BBX 7 6 0 0
BITMAP
5C
62
42
84
84
84
ENDCHAR
STARTCHAR o
ENCODING 111
SWIDTH 568 0
DWIDTH 8 0
BBX 7 6 0 0
BITMAP
3C
42
42
84
84
78
ENDCHAR
STARTCHAR p
ENCODING 112
SWIDTH 568 0
DWIDTH 8 0
BBX 8 8 0 -2
BITMAP
2E
31
21
62
5C
40
80
80
ENDCHAR
STARTCHAR q
ENCODING 113
SWIDTH 568 0
DWIDTH 8 0
BBX 7 8 0 -2
BITMAP
3A
46
84
8C
74
04
08
08
ENDCHAR
STARTCHAR r
ENCODING 114
SWIDTH 568 0
DWIDTH 8 0
BBX 6 6 1 0
BITMAP
B8
44
40
80
80
80
ENDCHAR
STARTCHAR s
ENCODING 115
SWIDTH 568 0
DWIDTH 8 0
BBX 7 6 0 0
BITMAP
3C
42
20
18
84
78
ENDCHAR
STARTCHAR t
ENCODING 116
SWIDTH 568 0
DWIDTH 8 0
BBX 5 8 1 0
BITMAP
40
40
F8
40
80
80
88
70
ENDCHAR
STARTCHAR u
ENCODING 117
SWIDTH 568 0
DWIDTH 8 0
BBX 6 6 1 0
BITMAP
44
44
44
88
88
74
ENDCHAR
STARTCHAR v
ENCODING 118
SWIDTH 568 0
DWIDTH 8 0
BBX 5 6 1 0
BITMAP
88
88
90
A0
A0
40
ENDCHAR
STARTCHAR w
ENCODING 119
SWIDTH 568 0
DWIDTH 8 0
BBX 8 6 0 0
BITMAP
41
41
92
92
AA
44
ENDCHAR
STARTCHAR x
ENCODING 120
SWIDTH 568 0
DWIDTH 8 0
BBX 7 6 0 0
BITMAP
42
24
18
30
48
84
ENDCHAR
STARTCHAR y
ENCODING 121
SWIDTH 568 0
DWIDTH 8 0
BBX 7 8 0 -2
BITMAP
42
42
84
8C
74
04
84
78
ENDCHAR
STARTCHAR z
ENCODING 122
SWIDTH 568 0
DWIDTH 8 0
BBX 7 6 0 0
BITMAP
7E
04
18
20
40
FC
ENDCHAR
STARTCHAR braceleft
ENCODING 123
SWIDTH 568 0
DWIDTH 8 0
BBX 5 9 1 0
BITMAP
38
40
40
20
C0
40
80
80
70
ENDCHAR
STARTCHAR bar
ENCODING 124
SWIDTH 568 0
DWIDTH 8 0
BBX 2 9 3 0
BITMAP
40
40
40
40
40
80
80
80
80
ENDCHAR
STARTCHAR braceright
ENCODING 125
SWIDTH 568 0
DWIDTH 8 0
BBX 5 9 1 0
BITMAP
70
08
08
10
18
20
10
10
E0
ENDCHAR
STARTCHAR asciitilde
ENCODING 126
SWIDTH 568 0
DWIDTH 8 0
BBX 5 3 1 6
BITMAP
48
A8
90
ENDCHAR
ENDFONT
