STARTFONT 2.1
FONT -Misc-Fixed-Medium-R-Normal--15-140-75-75-C-90-ISO10646-1
SIZE 15 75 75
FONTBOUNDINGBOX 9 14 0 -3
COMMENT "Generated by fontforge, http://fontforge.sourceforge.net"
STARTPROPERTIES 24
FONTNAME_REGISTRY ""
FOUNDRY "Misc"
FAMILY_NAME "Fixed"
WEIGHT_NAME "Medium"
SLANT "R"
SETWIDTH_NAME "Normal"
ADD_STYLE_NAME ""
PIXEL_SIZE 15
POINT_SIZE 140
RESOLUTION_X 75
RESOLUTION_Y 75
SPACING "C"
AVERAGE_WIDTH 90
CHARSET_REGISTRY "ISO10646"
CHARSET_ENCODING "1"
COPYRIGHT "Public domain font.  Share and enjoy."
CAP_HEIGHT 10
X_HEIGHT 7
_GBDFED_INFO "Edited with gbdfed 1.3."
WEIGHT 10
QUAD_WIDTH 9
DEFAULT_CHAR 0
FONT_DESCENT 3
FONT_ASCENT 12
ENDPROPERTIES
CHARS 95
STARTCHAR space
ENCODING 32
SWIDTH 576 0
DWIDTH 9 0
BBX 1 1 8 -3
BITMAP
00
ENDCHAR
STARTCHAR exclam
ENCODING 33
SWIDTH 576 0
DWIDTH 9 0
BBX 1 11 4 0
BITMAP
80
80
80
80
80
80
80
00
00
80
80
ENDCHAR
STARTCHAR quotedbl
ENCODING 34
SWIDTH 576 0
DWIDTH 9 0
BBX 4 3 3 7
BITMAP
90
90
90
ENDCHAR
STARTCHAR numbersign
ENCODING 35
SWIDTH 576 0
DWIDTH 9 0
BBX 6 8 1 1
BITMAP
48
48
FC
48
48
FC
48
48
ENDCHAR
STARTCHAR dollar
ENCODING 36
SWIDTH 576 0
DWIDTH 9 0
BBX 7 11 1 -1
BITMAP
10
7C
92
90
50
38
14
12
92
7C
10
ENDCHAR
STARTCHAR percent
ENCODING 37
SWIDTH 576 0
DWIDTH 9 0
BBX 7 10 1 0
BITMAP
42
A4
A4
48
10
10
24
4A
4A
84
ENDCHAR
STARTCHAR ampersand
ENCODING 38
SWIDTH 576 0
DWIDTH 9 0
BBX 7 10 1 0
BITMAP
60
90
90
90
60
62
94
88
94
62
ENDCHAR
STARTCHAR quotesingle
ENCODING 39
SWIDTH 576 0
DWIDTH 9 0
BBX 1 3 4 7
BITMAP
80
80
80
ENDCHAR
STARTCHAR parenleft
ENCODING 40
SWIDTH 576 0
DWIDTH 9 0
BBX 3 12 3 -1
BITMAP
20
40
40
80
80
80
80
80
80
40
40
20
ENDCHAR
STARTCHAR parenright
ENCODING 41
SWIDTH 576 0
DWIDTH 9 0
BBX 3 12 3 -1
BITMAP
80
40
40
20
20
20
20
20
20
40
40
80
ENDCHAR
STARTCHAR asterisk
ENCODING 42
SWIDTH 576 0
DWIDTH 9 0
BBX 7 7 1 3
BITMAP
10
92
54
38
54
92
10
ENDCHAR
STARTCHAR plus
ENCODING 43
SWIDTH 576 0
DWIDTH 9 0
BBX 7 7 1 1
BITMAP
10
10
10
FE
10
10
10
ENDCHAR
STARTCHAR comma
ENCODING 44
SWIDTH 576 0
DWIDTH 9 0
BBX 2 5 4 -3
BITMAP
C0
C0
40
40
80
ENDCHAR
STARTCHAR hyphen
ENCODING 45
SWIDTH 576 0
DWIDTH 9 0
BBX 7 1 1 4
BITMAP
FE
ENDCHAR
STARTCHAR period
ENCODING 46
SWIDTH 576 0
DWIDTH 9 0
BBX 2 2 4 0
BITMAP
C0
C0
ENDCHAR
STARTCHAR slash
ENCODING 47
SWIDTH 576 0
DWIDTH 9 0
BBX 7 10 1 0
BITMAP
02
04
04
08
10
10
20
40
40
80
ENDCHAR
STARTCHAR zero
ENCODING 48
SWIDTH 576 0
DWIDTH 9 0
BBX 7 10 1 0
BITMAP
38
44
86
8E
9A
B2
E2
C2
44
38
ENDCHAR
STARTCHAR one
ENCODING 49
SWIDTH 576 0
DWIDTH 9 0
BBX 7 10 1 0
BITMAP
10
30
50
90
10
10
10
10
10
FE
ENDCHAR
STARTCHAR two
ENCODING 50
SWIDTH 576 0
DWIDTH 9 0
BBX 7 10 1 0
BITMAP
7C
82
82
04
08
10
20
40
80
FE
ENDCHAR
STARTCHAR three
ENCODING 51
SWIDTH 576 0
DWIDTH 9 0
BBX 7 10 1 0
BITMAP
FE
02
04
08
1C
02
02
02
82
7C
ENDCHAR
STARTCHAR four
ENCODING 52
SWIDTH 576 0
DWIDTH 9 0
BBX 7 10 1 0
BITMAP
04
0C
14
24
44
84
FE
04
04
04
ENDCHAR
STARTCHAR five
ENCODING 53
SWIDTH 576 0
DWIDTH 9 0
BBX 7 10 1 0
BITMAP
FE
80
80
BC
C2
02
02
02
82
7C
ENDCHAR
STARTCHAR six
ENCODING 54
SWIDTH 576 0
DWIDTH 9 0
BBX 7 10 1 0
BITMAP
3C
40
80
80
BC
C2
82
82
82
7C
ENDCHAR
STARTCHAR seven
ENCODING 55
SWIDTH 576 0
DWIDTH 9 0
BBX 7 10 1 0
BITMAP
FE
02
04
04
08
08
10
10
20
20
ENDCHAR
STARTCHAR eight
ENCODING 56
SWIDTH 576 0
DWIDTH 9 0
BBX 7 10 1 0
BITMAP
38
44
82
44
38
44
82
82
44
38
ENDCHAR
STARTCHAR nine
ENCODING 57
SWIDTH 576 0
DWIDTH 9 0
BBX 7 10 1 0
BITMAP
7C
82
82
82
86
7A
02
02
04
78
ENDCHAR
STARTCHAR colon
ENCODING 58
SWIDTH 576 0
DWIDTH 9 0
BBX 2 7 4 0
BITMAP
C0
C0
00
00
00
C0
C0
ENDCHAR
STARTCHAR semicolon
ENCODING 59
SWIDTH 576 0
DWIDTH 9 0
BBX 2 10 4 -3
BITMAP
C0
C0
00
00
00
C0
C0
40
40
80
ENDCHAR
STARTCHAR less
ENCODING 60
SWIDTH 576 0
DWIDTH 9 0
BBX 5 10 2 0
BITMAP
08
10
20
40
80
80
40
20
10
08
ENDCHAR
STARTCHAR equal
ENCODING 61
SWIDTH 576 0
DWIDTH 9 0
BBX 7 4 1 2
BITMAP
FE
00
00
FE
ENDCHAR
STARTCHAR greater
ENCODING 62
SWIDTH 576 0
DWIDTH 9 0
BBX 5 10 2 0
BITMAP
80
40
20
10
08
08
10
20
40
80
ENDCHAR
STARTCHAR question
ENCODING 63
SWIDTH 576 0
DWIDTH 9 0
BBX 7 10 1 0
BITMAP
7C
82
82
02
04
08
10
10
00
10
ENDCHAR
STARTCHAR at
ENCODING 64
SWIDTH 576 0
DWIDTH 9 0
BBX 7 10 1 0
BITMAP
7C
82
82
9E
A2
A6
9A
80
80
7C
ENDCHAR
STARTCHAR A
ENCODING 65
SWIDTH 576 0
DWIDTH 9 0
BBX 7 10 1 0
BITMAP
10
28
44
82
82
82
FE
82
82
82
ENDCHAR
STARTCHAR B
ENCODING 66
SWIDTH 576 0
DWIDTH 9 0
BBX 7 10 1 0
BITMAP
F8
84
82
84
F8
84
82
82
84
F8
ENDCHAR
STARTCHAR C
ENCODING 67
SWIDTH 576 0
DWIDTH 9 0
BBX 7 10 1 0
BITMAP
7C
82
80
80
80
80
80
80
82
7C
ENDCHAR
STARTCHAR D
ENCODING 68
SWIDTH 576 0
DWIDTH 9 0
BBX 7 10 1 0
BITMAP
F8
84
82
82
82
82
82
82
84
F8
ENDCHAR
STARTCHAR E
ENCODING 69
SWIDTH 576 0
DWIDTH 9 0
BBX 7 10 1 0
BITMAP
FE
80
80
80
F8
80
80
80
80
FE
ENDCHAR
STARTCHAR F
ENCODING 70
SWIDTH 576 0
DWIDTH 9 0
BBX 7 10 1 0
BITMAP
FE
80
80
80
F8
80
80
80
80
80
ENDCHAR
STARTCHAR G
ENCODING 71
SWIDTH 576 0
DWIDTH 9 0
BBX 7 10 1 0
BITMAP
7C
82
80
80
80
8E
82
82
82
7C
ENDCHAR
STARTCHAR H
ENCODING 72
SWIDTH 576 0
DWIDTH 9 0
BBX 7 10 1 0
BITMAP
82
82
82
82
FE
82
82
82
82
82
ENDCHAR
STARTCHAR I
ENCODING 73
SWIDTH 576 0
DWIDTH 9 0
BBX 5 10 2 0
BITMAP
F8
20
20
20
20
20
20
20
20
F8
ENDCHAR
STARTCHAR J
ENCODING 74
SWIDTH 576 0
DWIDTH 9 0
BBX 8 10 1 0
BITMAP
1F
04
04
04
04
04
04
04
84
78
ENDCHAR
STARTCHAR K
ENCODING 75
SWIDTH 576 0
DWIDTH 9 0
BBX 7 10 1 0
BITMAP
82
84
88
90
E0
A0
90
88
84
82
ENDCHAR
STARTCHAR L
ENCODING 76
SWIDTH 576 0
DWIDTH 9 0
BBX 7 10 1 0
BITMAP
80
80
80
80
80
80
80
80
80
FE
ENDCHAR
STARTCHAR M
ENCODING 77
SWIDTH 576 0
DWIDTH 9 0
BBX 7 10 1 0
BITMAP
82
82
C6
AA
AA
92
92
82
82
82
ENDCHAR
STARTCHAR N
ENCODING 78
SWIDTH 576 0
DWIDTH 9 0
BBX 7 10 1 0
BITMAP
82
82
C2
A2
92
8A
86
82
82
82
ENDCHAR
STARTCHAR O
ENCODING 79
SWIDTH 576 0
DWIDTH 9 0
BBX 7 10 1 0
BITMAP
7C
82
82
82
82
82
82
82
82
7C
ENDCHAR
STARTCHAR P
ENCODING 80
SWIDTH 576 0
DWIDTH 9 0
BBX 7 10 1 0
BITMAP
FC
82
82
82
FC
80
80
80
80
80
ENDCHAR
STARTCHAR Q
ENCODING 81
SWIDTH 576 0
DWIDTH 9 0
BBX 7 12 1 -2
BITMAP
7C
82
82
82
82
82
82
A2
92
7C
08
06
ENDCHAR
STARTCHAR R
ENCODING 82
SWIDTH 576 0
DWIDTH 9 0
BBX 7 10 1 0
BITMAP
FC
82
82
82
FC
90
88
84
82
82
ENDCHAR
STARTCHAR S
ENCODING 83
SWIDTH 576 0
DWIDTH 9 0
BBX 7 10 1 0
BITMAP
7C
82
82
80
70
0C
02
82
82
7C
ENDCHAR
STARTCHAR T
ENCODING 84
SWIDTH 576 0
DWIDTH 9 0
BBX 7 10 1 0
BITMAP
FE
10
10
10
10
10
10
10
10
10
ENDCHAR
STARTCHAR U
ENCODING 85
SWIDTH 576 0
DWIDTH 9 0
BBX 7 10 1 0
BITMAP
82
82
82
82
82
82
82
82
82
7C
ENDCHAR
STARTCHAR V
ENCODING 86
SWIDTH 576 0
DWIDTH 9 0
BBX 7 10 1 0
BITMAP
82
82
82
44
44
44
28
28
28
10
ENDCHAR
STARTCHAR W
ENCODING 87
SWIDTH 576 0
DWIDTH 9 0
BBX 7 10 1 0
BITMAP
82
82
82
82
92
92
92
92
AA
44
ENDCHAR
STARTCHAR X
ENCODING 88
SWIDTH 576 0
DWIDTH 9 0
BBX 7 10 1 0
BITMAP
82
82
44
28
10
10
28
44
82
82
ENDCHAR
STARTCHAR Y
ENCODING 89
SWIDTH 576 0
DWIDTH 9 0
BBX 7 10 1 0
BITMAP
82
82
44
28
10
10
10
10
10
10
ENDCHAR
STARTCHAR Z
ENCODING 90
SWIDTH 576 0
DWIDTH 9 0
BBX 7 10 1 0
BITMAP
FE
02
04
08
10
20
40
80
80
FE
ENDCHAR
STARTCHAR bracketleft
ENCODING 91
SWIDTH 576 0
DWIDTH 9 0
BBX 4 12 3 -1
BITMAP
F0
80
80
80
80
80
80
80
80
80
80
F0
ENDCHAR
STARTCHAR backslash
ENCODING 92
SWIDTH 576 0
DWIDTH 9 0
BBX 7 10 1 0
BITMAP
80
40
40
20
10
10
08
04
04
02
ENDCHAR
STARTCHAR bracketright
ENCODING 93
SWIDTH 576 0
DWIDTH 9 0
BBX 4 12 2 -1
BITMAP
F0
10
10
10
10
10
10
10
10
10
10
F0
ENDCHAR
STARTCHAR asciicircum
ENCODING 94
SWIDTH 576 0
DWIDTH 9 0
BBX 7 4 1 6
BITMAP
10
28
44
82
ENDCHAR
STARTCHAR underscore
ENCODING 95
SWIDTH 576 0
DWIDTH 9 0
BBX 8 1 0 -1
BITMAP
FF
ENDCHAR
STARTCHAR grave
ENCODING 96
SWIDTH 576 0
DWIDTH 9 0
BBX 3 3 3 8
BITMAP
80
40
20
ENDCHAR
STARTCHAR a
ENCODING 97
SWIDTH 576 0
DWIDTH 9 0
BBX 7 7 1 0
BITMAP
7C
02
02
7E
82
86
7A
ENDCHAR
STARTCHAR b
ENCODING 98
SWIDTH 576 0
DWIDTH 9 0
BBX 7 10 1 0
BITMAP
80
80
80
BC
C2
82
82
82
C2
BC
ENDCHAR
STARTCHAR c
ENCODING 99
SWIDTH 576 0
DWIDTH 9 0
BBX 7 7 1 0
BITMAP
7C
82
80
80
80
82
7C
ENDCHAR
STARTCHAR d
ENCODING 100
SWIDTH 576 0
DWIDTH 9 0
BBX 7 10 1 0
BITMAP
02
02
02
7A
86
82
82
82
86
7A
ENDCHAR
STARTCHAR e
ENCODING 101
SWIDTH 576 0
DWIDTH 9 0
BBX 7 7 1 0
BITMAP
7C
82
82
FE
80
80
7C
ENDCHAR
STARTCHAR f
ENCODING 102
SWIDTH 576 0
DWIDTH 9 0
BBX 7 10 1 0
BITMAP
1C
22
22
20
20
F8
20
20
20
20
ENDCHAR
STARTCHAR g
ENCODING 103
SWIDTH 576 0
DWIDTH 9 0
BBX 7 10 1 -3
BITMAP
7A
84
84
84
78
80
7C
82
82
7C
ENDCHAR
STARTCHAR h
ENCODING 104
SWIDTH 576 0
DWIDTH 9 0
BBX 7 10 1 0
BITMAP
80
80
80
BC
C2
82
82
82
82
82
ENDCHAR
STARTCHAR i
ENCODING 105
SWIDTH 576 0
DWIDTH 9 0
BBX 5 10 2 0
BITMAP
60
00
00
E0
20
20
20
20
20
F8
ENDCHAR
STARTCHAR j
ENCODING 106
SWIDTH 576 0
DWIDTH 9 0
BBX 6 13 1 -3
BITMAP
0C
00
00
1C
04
04
04
04
04
84
84
84
78
ENDCHAR
STARTCHAR k
ENCODING 107
SWIDTH 576 0
DWIDTH 9 0
BBX 7 10 1 0
BITMAP
80
80
80
82
8C
B0
C0
B0
8C
82
ENDCHAR
STARTCHAR l
ENCODING 108
SWIDTH 576 0
DWIDTH 9 0
BBX 5 10 2 0
BITMAP
E0
20
20
20
20
20
20
20
20
F8
ENDCHAR
STARTCHAR m
ENCODING 109
SWIDTH 576 0
DWIDTH 9 0
BBX 7 7 1 0
BITMAP
EC
92
92
92
92
92
82
ENDCHAR
STARTCHAR n
ENCODING 110
SWIDTH 576 0
DWIDTH 9 0
BBX 7 7 1 0
BITMAP
BC
C2
82
82
82
82
82
ENDCHAR
STARTCHAR o
ENCODING 111
SWIDTH 576 0
DWIDTH 9 0
BBX 7 7 1 0
BITMAP
7C
82
82
82
82
82
7C
ENDCHAR
STARTCHAR p
ENCODING 112
SWIDTH 576 0
DWIDTH 9 0
BBX 7 10 1 -3
BITMAP
BC
C2
82
82
82
C2
BC
80
80
80
ENDCHAR
STARTCHAR q
ENCODING 113
SWIDTH 576 0
DWIDTH 9 0
BBX 7 10 1 -3
BITMAP
7A
86
82
82
82
86
7A
02
02
02
ENDCHAR
STARTCHAR r
ENCODING 114
SWIDTH 576 0
DWIDTH 9 0
BBX 7 7 1 0
BITMAP
9C
62
42
40
40
40
40
ENDCHAR
STARTCHAR s
ENCODING 115
SWIDTH 576 0
DWIDTH 9 0
BBX 7 7 1 0
BITMAP
7C
82
80
7C
02
82
7C
ENDCHAR
STARTCHAR t
ENCODING 116
SWIDTH 576 0
DWIDTH 9 0
BBX 7 9 1 0
BITMAP
20
20
FC
20
20
20
20
22
1C
ENDCHAR
STARTCHAR u
ENCODING 117
SWIDTH 576 0
DWIDTH 9 0
BBX 7 7 1 0
BITMAP
84
84
84
84
84
84
7A
ENDCHAR
STARTCHAR v
ENCODING 118
SWIDTH 576 0
DWIDTH 9 0
BBX 7 7 1 0
BITMAP
82
82
44
44
28
28
10
ENDCHAR
STARTCHAR w
ENCODING 119
SWIDTH 576 0
DWIDTH 9 0
BBX 7 7 1 0
BITMAP
82
82
92
92
92
AA
44
ENDCHAR
STARTCHAR x
ENCODING 120
SWIDTH 576 0
DWIDTH 9 0
BBX 7 7 1 0
BITMAP
82
44
28
10
28
44
82
ENDCHAR
STARTCHAR y
ENCODING 121
SWIDTH 576 0
DWIDTH 9 0
BBX 6 10 1 -3
BITMAP
84
84
84
84
84
8C
74
04
84
78
ENDCHAR
STARTCHAR z
ENCODING 122
SWIDTH 576 0
DWIDTH 9 0
BBX 7 7 1 0
BITMAP
FE
04
08
10
20
40
FE
ENDCHAR
STARTCHAR braceleft
ENCODING 123
SWIDTH 576 0
DWIDTH 9 0
BBX 5 12 3 -1
BITMAP
38
40
40
40
20
C0
C0
20
40
40
40
38
ENDCHAR
STARTCHAR bar
ENCODING 124
SWIDTH 576 0
DWIDTH 9 0
BBX 1 12 4 -1
BITMAP
80
80
80
80
80
80
80
80
80
80
80
80
ENDCHAR
STARTCHAR braceright
ENCODING 125
SWIDTH 576 0
DWIDTH 9 0
BBX 5 12 1 -1
BITMAP
E0
10
10
10
20
18
18
20
10
10
10
E0
ENDCHAR
STARTCHAR asciitilde
ENCODING 126
SWIDTH 576 0
DWIDTH 9 0
BBX 7 3 1 7
BITMAP
62
92
8C
ENDCHAR
ENDFONT
